<?xml version="1.0" standalone="no"?><!DOCTYPE svg PUBLIC "-//W3C//DTD SVG 1.1//EN" "http://www.w3.org/Graphics/SVG/1.1/DTD/svg11.dtd"><svg t="1536594054538" class="icon" style="" viewBox="0 0 1024 1024" version="1.1" xmlns="http://www.w3.org/2000/svg" p-id="2605" xmlns:xlink="http://www.w3.org/1999/xlink" width="22" height="22"><defs><style type="text/css"></style></defs><path d="M870.652165 72.90439 149.713019 72.90439c-42.361768 0-76.70412 34.341393-76.70412 76.70412l0 575.246382c0 42.361768 34.341393 76.70412 76.70412 76.70412l157.742981 0L307.456 930.277154c0 10.590921 8.585109 19.17603 19.17603 19.17603 4.652105 0 8.914936-1.657768 12.236225-4.413363l0.086292 0.04027 184.871311-143.521079 346.826307 0c42.361768 0 76.70412-34.342352 76.70412-76.70412L947.356285 149.608509C947.356285 107.245783 913.012974 72.90439 870.652165 72.90439zM874.426966 184.089888l0 506.16761c0 21.181843-17.170217 38.35206-38.35206 38.35206L503.370787 728.609558l-88.064 72.949453L380.004674 830.801498l0-29.242487 0-72.949453L184.089888 728.609558c-21.180884 0-38.35206-17.170217-38.35206-38.35206L145.737828 184.089888c0-21.180884 17.171176-38.35206 38.35206-38.35206l651.985019 0C857.256749 145.737828 874.426966 162.909004 874.426966 184.089888L874.426966 184.089888z" p-id="2606"></path><path d="M342.690996 385.884045c-9.370367-8.330067-21.71206-13.389663-35.235955-13.389663-17.194187 0-32.478442 8.179536-42.172884 20.859685-6.825708 8.92836-10.880479 20.08785-10.880479 32.193678 0 15.594906 6.728869 29.618337 17.440599 39.325243 9.414472 8.531416 21.906697 13.729079 35.613723 13.729079 16.236345 0 30.768899-7.293603 40.500734-18.782921 7.830532-9.244764 12.552629-21.206772 12.552629-34.271401C360.508404 409.769708 353.621333 395.601498 342.690996 385.884045z" p-id="2607"></path><path d="M545.450667 385.500524c-9.315715-8.101873-21.484824-13.007101-34.800659-13.007101-14.088629 0-26.894382 5.491056-36.394187 14.450097-10.258217 9.673348-16.660135 23.390921-16.660135 38.603266 0 13.939056 5.375041 26.622082 14.166292 36.090247 9.688689 10.434637 23.526112 16.964075 38.88803 16.964075 16.071431 0 30.472629-7.145948 40.202547-18.433918 8.008869-9.291745 12.850816-21.390861 12.850816-34.620404C563.703371 409.561648 556.633169 395.227566 545.450667 385.500524z" p-id="2608"></path><path d="M745.426936 382.914637c-8.82385-6.547655-19.751311-10.421213-31.581963-10.421213-15.313019 0-29.109213 6.487251-38.793109 16.862442-8.84782 9.478712-14.261213 22.202007-14.261213 36.190921 0 14.088629 5.492015 26.895341 14.451056 36.394187 9.674307 10.257258 23.390921 16.659176 38.603266 16.659176 15.099206 0 28.724734-6.307955 38.385618-16.43194 9.087521-9.521858 14.667745-22.420614 14.667745-36.622382C766.898337 408.078382 758.455131 392.582232 745.426936 382.914637z" p-id="2609"></path></svg>