<?xml version="1.0" standalone="no"?><!DOCTYPE svg PUBLIC "-//W3C//DTD SVG 1.1//EN" "http://www.w3.org/Graphics/SVG/1.1/DTD/svg11.dtd"><svg t="1538825558938" class="icon" style="" viewBox="0 0 1024 1024" version="1.1" xmlns="http://www.w3.org/2000/svg" p-id="11206" xmlns:xlink="http://www.w3.org/1999/xlink" width="24" height="24"><defs><style type="text/css"></style></defs><path d="M292 572c-33.2 0-60-26.8-60-60s26.8-60 60-60 60 26.8 60 60-26.8 60-60 60z m220 0c-33.2 0-60-26.8-60-60s26.8-60 60-60 60 26.8 60 60-26.8 60-60 60z m220 0c-33.2 0-60-26.8-60-60s26.8-60 60-60 60 26.8 60 60-26.8 60-60 60z" p-id="11207" fill="#9199a1"></path></svg>