<?xml version="1.0" standalone="no"?><!DOCTYPE svg PUBLIC "-//W3C//DTD SVG 1.1//EN" "http://www.w3.org/Graphics/SVG/1.1/DTD/svg11.dtd"><svg t="1536248195584" class="icon" style="" viewBox="0 0 1024 1024" version="1.1" xmlns="http://www.w3.org/2000/svg" p-id="4457" xmlns:xlink="http://www.w3.org/1999/xlink" width="28" height="28"><defs><style type="text/css"></style></defs><path d="M720.05996094 398.51298828H322.85498047v-75.6571289c0-95.08974609 80.38652344-169.63945312 183.234375-170.23095704 100.48359375 0.55371094 176.14160156 73.55214844 176.14160156 170.23095703v37.828125c0 10.45546875 8.45859375 18.91494141 18.9140625 18.91494141s18.9140625-8.45947266 18.9140625-18.9140625v-37.82900391c0-117.84638672-91.321875-206.91474609-212.78935547-208.05996093h-2.36425781c-123.496875 1.14433594-219.88037109 92.13398438-219.88037109 208.05908203v77.5696289c-63.99316406 9.27685547-113.48613281 63.96767578-113.48613282 130.48945313v245.88896484c0 72.9984375 59.40351563 132.40195312 132.40107422 132.40195313h416.11992188c72.99755859 0 132.40107422-59.40351563 132.40107422-132.40195313V530.9140625c0-72.99755859-59.40351563-132.40107422-132.40107422-132.40107422z m94.57207031 378.29003906c0 52.16308594-42.40986328 94.57294922-94.57207031 94.57294922H303.94003906c-52.16308594 0-94.57207031-42.40986328-94.57207031-94.57294922V530.9140625c0-52.16308594 42.40986328-94.57294922 94.57207031-94.57294922h416.11992188c52.16308594 0 94.57207031 42.40986328 94.57207031 94.57294922v245.88896484z" fill="" p-id="4458"></path><path d="M512 512c-62.58076172 0-113.48701172 50.90625-113.48701172 113.48701172 0 56.23330078 41.20488281 102.70019531 94.95175781 111.6140625-0.0703125 0.646875-0.37880859 1.20761719-0.37880859 1.87207031v56.74394531c0 10.45458984 8.45947266 18.9140625 18.9140625 18.9140625s18.9140625-8.45947266 18.9140625-18.9140625v-56.7430664c0-0.66533203-0.31376953-1.22607422-0.37792969-1.87207032 53.74160156-8.915625 94.95087891-55.38164062 94.95087891-111.6149414C625.48701172 562.90625 574.58076172 512 512 512z m0 189.14501953c-41.70849609 0-75.65800781-33.94951172-75.65800781-75.65800781S470.29238281 549.828125 512 549.828125s75.65800781 33.95039062 75.65800781 75.65800781-33.95039062 75.65800781-75.65800781 75.65800782z" fill="" p-id="4459"></path></svg>