<?xml version="1.0" standalone="no"?><!DOCTYPE svg PUBLIC "-//W3C//DTD SVG 1.1//EN" "http://www.w3.org/Graphics/SVG/1.1/DTD/svg11.dtd"><svg t="1538835502585" class="icon" style="" viewBox="0 0 1024 1024" version="1.1" xmlns="http://www.w3.org/2000/svg" p-id="13241" xmlns:xlink="http://www.w3.org/1999/xlink" width="18" height="18"><defs><style type="text/css"></style></defs><path d="M175.061333 574.037333c-28.458667 70.912-33.194667 138.496-10.24 151.04 15.829333 8.746667 40.533333-11.221333 63.786667-47.488 9.216 39.722667 31.914667 75.392 64.426667 104.192-34.048 13.226667-56.32 34.944-56.32 59.434667 0 40.362667 60.202667 72.96 134.485333 72.96 66.986667 0 122.496-26.453333 132.736-61.354667h15.957333c10.410667 34.858667 65.792 61.312 132.906667 61.312 74.325333 0 134.442667-32.597333 134.442667-72.96 0-24.448-22.229333-45.952-56.32-59.392 32.341333-28.8 55.253333-64.426667 64.426666-104.192 23.210667 36.266667 47.786667 56.234667 63.701334 47.488 23.04-12.544 18.432-80.128-10.24-151.04-22.485333-55.466667-52.906667-96.426667-76.117334-105.642666a111.317333 111.317333 0 0 0-14.933333-68.224c0.213333-1.28 0.213333-2.517333 0.213333-3.84a62.293333 62.293333 0 0 0-6.058666-27.093334c-5.845333-144.469333-95.232-259.413333-239.957334-259.413333-144.682667 0-234.197333 114.944-240.042666 259.413333a64.554667 64.554667 0 0 0-5.930667 31.061334 112.384 112.384 0 0 0-15.274667 57.472c0 3.626667 0.170667 7.253333 0.426667 10.794666-23.125333 9.088-53.674667 50.005333-76.074667 105.472z" p-id="13242" fill="#9199a1"></path></svg>