<?xml version="1.0" standalone="no"?><!DOCTYPE svg PUBLIC "-//W3C//DTD SVG 1.1//EN" "http://www.w3.org/Graphics/SVG/1.1/DTD/svg11.dtd"><svg t="1541061049758" class="icon" style="" viewBox="0 0 1024 1024" version="1.1" xmlns="http://www.w3.org/2000/svg" p-id="2543" xmlns:xlink="http://www.w3.org/1999/xlink" width="24" height="24"><defs><style type="text/css"></style></defs><path d="M988.382609 930.504348L727.930435 670.052174c57.878261-69.008696 91.269565-158.052174 91.269565-256 0-220.382609-178.086957-398.469565-398.469565-398.469565C200.347826 17.808696 22.26087 195.895652 22.26087 416.278261s178.086957 398.469565 398.469565 398.469565c91.269565 0 175.86087-31.165217 242.643478-82.365217l260.452174 260.452174c17.808696 17.808696 44.521739 17.808696 62.330435 0 20.034783-15.582609 20.034783-44.521739 2.226087-62.330435z m-429.634783-186.991305c-22.26087 8.904348-44.521739 15.582609-66.782609 20.034783-24.486957 4.452174-46.747826 6.678261-71.234782 6.678261s-48.973913-2.226087-71.234783-6.678261c-22.26087-4.452174-44.521739-11.130435-66.782609-20.034783-20.034783-8.904348-42.295652-20.034783-60.104347-33.391304-17.808696-13.356522-35.617391-26.713043-53.426087-42.295652-15.582609-15.582609-31.165217-33.391304-42.295652-53.426087-13.356522-20.034783-24.486957-40.069565-33.391305-60.104348-8.904348-22.26087-15.582609-44.521739-20.034782-66.782609-4.452174-22.26087-6.678261-46.747826-6.678261-71.234782s2.226087-48.973913 6.678261-71.234783c4.452174-22.26087 11.130435-44.521739 20.034782-66.782608 8.904348-20.034783 20.034783-42.295652 33.391305-60.104348 13.356522-17.808696 26.713043-35.617391 42.295652-53.426087 17.808696-15.582609 35.617391-31.165217 53.426087-42.295652 20.034783-13.356522 40.069565-24.486957 60.104347-33.391305 22.26087-8.904348 44.521739-15.582609 66.782609-20.034782 24.486957-4.452174 46.747826-6.678261 71.234783-6.678261s48.973913 2.226087 71.234782 6.678261c22.26087 4.452174 44.521739 11.130435 66.782609 20.034782 20.034783 8.904348 42.295652 20.034783 60.104348 33.391305 17.808696 13.356522 35.617391 26.713043 53.426087 42.295652 15.582609 15.582609 31.165217 33.391304 42.295652 53.426087 13.356522 20.034783 24.486957 40.069565 33.391304 60.104348 8.904348 22.26087 15.582609 44.521739 20.034783 66.782608 4.452174 24.486957 6.678261 46.747826 6.678261 71.234783s-2.226087 48.973913-6.678261 71.234782c-4.452174 22.26087-11.130435 44.521739-20.034783 66.782609-8.904348 20.034783-20.034783 42.295652-33.391304 60.104348-13.356522 17.808696-26.713043 35.617391-42.295652 53.426087-15.582609 15.582609-33.391304 31.165217-53.426087 42.295652-17.808696 13.356522-37.843478 24.486957-60.104348 33.391304z m0 0" fill="#999999" p-id="2544"></path></svg>