<?xml version="1.0" standalone="no"?><!DOCTYPE svg PUBLIC "-//W3C//DTD SVG 1.1//EN" "http://www.w3.org/Graphics/SVG/1.1/DTD/svg11.dtd"><svg t="1539095028720" class="icon" style="" viewBox="0 0 1024 1024" version="1.1" xmlns="http://www.w3.org/2000/svg" p-id="2654" xmlns:xlink="http://www.w3.org/1999/xlink" width="20" height="20"><defs><style type="text/css"></style></defs><path d="M377.138624 65.0528c17.334288 0.158947 31.966472 6.468072 44.281276 18.761202 18.259073 18.228367 38.736183 33.371711 62.310959 44.243346 20.390412 9.404985 40.522534 9.493489 60.940038 0.209521 23.618126-10.741587 44.008537-25.982467 62.565636-43.894745 16.761717-16.180114 36.509114-21.358545 59.094082-15.860413 3.933946 0.959103 7.598765 2.604568 11.138955 4.573348 35.835394 19.93705 71.685238 39.847008 107.520632 59.778639 21.913055 12.186563 32.44512 39.115489 24.402025 62.878112-4.152499 12.273261-8.87215 24.371319-10.710881 37.291207-3.590764 25.249142 1.407045 49.042471 13.909696 70.939269 20.005687 35.040658 50.516346 55.080663 90.504239 60.52822 4.681721 0.637595 9.468202 0.879629 14.191466 0.753194 19.73656-0.521997 31.03085 10.696432 38.277403 27.393124 5.375309 12.385247 6.538514 25.792814 8.418789 38.945704 3.681075 25.729596 6.766098 51.556728 5.447558 77.625894-1.417882 28.065038-4.519161 55.974741-10.667532 83.420246-3.023611 13.492459-9.518777 25.193149-21.896799 32.748565-6.108634 3.726231-12.834996 4.439687-19.711273 4.51013-33.965957 0.334151-63.485002 11.969816-86.492625 36.958863-33.608326 36.507308-42.009052 78.599446-23.699406 125.172815 7.145404 18.175986 7.035225 35.526531-3.24397 52.380364-4.36202 7.152629-10.178047 12.999361-17.534779 17.081417-37.238827 20.655926-74.495716 41.282952-111.79776 61.826892-20.417505 11.24191-49.073177 7.064124-66.228649-10.179853-16.16747-16.245138-33.182058-31.321652-53.021572-42.955511-9.233394-5.41324-18.809969-10.093154-29.170444-13.044517-16.622638-4.730489-32.298816-1.544318-47.507184 5.552319-23.990207 11.200367-44.682257 27.015625-63.062346 45.881587-11.706108 12.018584-25.610386 18.757589-42.397389 19.368091-9.822221 0.354019-19.192888-1.435944-27.860935-6.282031-35.793851-20.014718-71.612989-39.982474-107.372522-60.062216-20.596321-11.563417-31.206054-39.11007-23.511559-61.490935 4.504711-13.089672 9.652437-25.995111 11.263585-39.848814 3.413755-29.369128-4.085668-56.077696-21.06955-79.98301-20.515041-28.876031-48.831143-45.117556-83.868188-49.685485-4.336733-0.565347-8.769195-0.74055-13.145665-0.614115-20.058067 0.572572-31.834618-10.407437-39.102845-27.743531-5.844926-13.947627-7.015356-28.93383-9.074447-43.643681-3.455298-24.696439-6.018323-49.508475-4.607666-74.526421 1.564186-27.711019 4.502905-55.279347 10.779518-82.345545 3.086829-13.308225 9.600056-24.784943 21.873318-32.150706 5.81422-3.489616 12.168501-4.188623 18.705209-4.241003 27.730887-0.220359 52.754252-8.339315 74.752199-25.442407 35.997954-27.990983 56.144526-79.04197 39.899388-126.681008-2.982068-8.745715-6.863634-17.186178-8.323059-26.499046-3.08141-19.653474 7.371182-43.034985 24.741594-52.667553 38.461637-21.335064 77.071384-42.411839 115.668488-63.503064C360.295627 66.40024 368.575337 64.953458 377.138624 65.0528zM908.156309 422.803464c-0.503935-3.245776-1.995873-4.273515-5.15495-4.37647-4.549867-0.149916-9.128633-0.567153-13.613476-1.343827-37.215346-6.43556-69.469007-22.630124-95.984308-49.66381-28.951892-29.515432-45.253022-65.065444-49.18155-106.167774-2.535932-26.542395 2.344473-52.067888 12.152245-76.690272 1.551543-3.899628 0.957296-5.536063-2.776159-7.584316-32.728697-17.953821-65.372501-36.061172-97.888064-54.397912-5.066446-2.857439-8.33209-2.263193-12.396084 1.674365-20.65412 20.01833-43.542533 36.944413-69.358827 49.891394-39.810883 19.964144-79.399601 19.998462-119.181585-0.05238-26.432216-13.322675-49.727028-30.862872-70.724329-51.558535-3.728037-3.675657-6.899758-4.071219-11.568836-1.477488-33.700443 18.732302-67.480359 37.3183-101.410192 55.626141-4.477618 2.416722-4.87318 4.363826-3.130178 8.771002 12.717591 32.174187 16.118702 65.20091 8.070189 99.081975-10.465236 44.059111-34.334426 79.043776-71.658145 104.684868-25.250948 17.345126-53.274443 27.068005-83.853739 29.273399-2.57025 0.186041-4.136243 0.704426-4.604053 3.724425-3.352343 21.685471-6.563802 43.381779-7.450655 65.341795-1.165012 28.767657 3.112116 57.063891 7.454268 85.360126 0.464198 3.025418 2.013935 3.496841 4.59141 3.686494 13.862734 1.016902 27.431055 3.56909 40.634519 8.023227 44.852042 15.132507 78.595834 43.614781 100.12597 85.61119 23.466403 45.771407 25.281654 93.045589 6.179077 140.910405-1.410657 3.532965-0.854342 4.945429 2.429365 6.764292 32.204893 17.818355 64.353793 35.736052 96.372646 53.886751 4.703395 2.669592 7.652952 2.199975 11.384601-1.582248 21.074969-21.372995 44.564853-39.5544 71.343863-53.373785 40.750117-21.026201 81.299744-20.849191 121.923426 0.397368 27.030074 14.13728 50.613882 32.750371 71.775549 54.535184 3.549221 3.65037 6.417498 4.121793 10.93124 1.596698 33.183864-18.58058 66.456233-37.000406 99.844199-55.205292 4.042319-2.205394 4.345764-3.912271 2.74726-7.974459-19.006847-48.347076-17.117542-96.170349 7.546385-141.721398 29.862226-55.15833 77.004554-85.808068 139.698432-91.820973 3.104891-0.298026 4.250034-1.343827 4.696171-4.210298 3.852666-24.808424 7.340476-49.651167 7.764937-74.699818C915.471497 472.458244 912.014393 447.611889 908.156309 422.803464z" p-id="2655" fill="#707070"></path><path d="M509.729582 338.431341c86.94418-0.343182 158.013497 70.507583 158.658318 158.172445 0.641208 86.870125-71.271614 158.994274-158.457827 158.914801-87.132027-0.077667-158.143545-71.094604-158.437959-158.44699C351.199506 410.219533 422.463895 338.776329 509.729582 338.431341zM405.510719 496.190161c-0.764031 57.423329 45.946611 104.75531 104.074365 105.450705 56.556344 0.679139 103.794401-45.776826 104.854652-103.108038 1.069282-57.784573-45.38307-105.311626-103.823301-106.229185C453.700654 391.41137 406.283781 438.279153 405.510719 496.190161z" p-id="2656" fill="#707070"></path></svg>