<?xml version="1.0" standalone="no"?><!DOCTYPE svg PUBLIC "-//W3C//DTD SVG 1.1//EN" "http://www.w3.org/Graphics/SVG/1.1/DTD/svg11.dtd"><svg t="1538805298764" class="icon" style="" viewBox="0 0 1448 1024" version="1.1" xmlns="http://www.w3.org/2000/svg" p-id="12382" xmlns:xlink="http://www.w3.org/1999/xlink" width="28.28125" height="20"><defs><style type="text/css"></style></defs><path d="M665.679059 641.109871c-59.476897 0-118.832165-22.623114-164.078394-67.869344-90.492458-90.492458-90.492458-237.542701 0-328.035158 90.492458-90.492458 237.542701-90.492458 328.035159 0 90.492458 90.492458 90.492458 237.542701 0 328.035158-45.124599 45.246229-104.601497 67.869343-163.956765 67.869344z m0-398.337095c-42.570377 0-85.384012 16.298373-117.737498 48.773488-64.950232 64.950232-64.950232 170.646395 0 235.596627 64.950232 64.950232 170.646395 64.950232 235.596626 0 64.950232-64.950232 64.950232-170.646395 0-235.596627-32.596745-32.596745-75.167122-48.773489-117.859128-48.773488zM488.951182 786.21404" fill="#FF9DC6" p-id="12383"></path><path d="M380.214277 930.466801c-17.028151-9.243853-23.474522-30.89393-14.352298-48.04371l168.457061-311.371897c9.243853-17.028151 30.89393-23.474522 48.043711-14.352299 17.028151 9.243853 23.474522 30.89393 14.352298 48.043711l-168.457061 311.371897c-9.365483 17.14978-30.89393 23.596152-48.043711 14.352298z m0 0" fill="#FF9DC6" p-id="12384"></path><path d="M611.675496 872.2062l-204.702696 61.058083c-18.730966 5.594964-38.556598-5.108445-44.029933-23.839411-5.594964-18.730966 5.108445-38.556598 23.839411-44.029932l204.702696-61.058083c18.730966-5.594964 38.556598 5.108445 44.029933 23.839411 5.594964 18.609336-5.108445 38.434969-23.839411 44.029932z m0 0" fill="#FF9DC6" p-id="12385"></path><path d="M302.249673 704.843806l61.058083 204.702696c5.594964 18.730966 25.420596 29.434375 44.029933 23.839411 18.730966-5.594964 29.434375-25.420596 23.83941-44.029932l-61.058082-204.702697c-5.594964-18.730966-25.420596-29.434375-44.029933-23.839411-18.730966 5.594964-29.434375 25.420596-23.839411 44.029933z m0 0" fill="#FF9DC6" p-id="12386"></path></svg>