<?xml version="1.0" standalone="no"?><!DOCTYPE svg PUBLIC "-//W3C//DTD SVG 1.1//EN"
        "http://www.w3.org/Graphics/SVG/1.1/DTD/svg11.dtd">
<svg t="1538835467668" class="icon" style="" viewBox="0 0 1024 1024" version="1.1" xmlns="http://www.w3.org/2000/svg"
     p-id="12461" xmlns:xlink="http://www.w3.org/1999/xlink" width="18" height="18">
    <defs>
        <style type="text/css"></style>
    </defs>
    <path d="M749.832258 445.935484c-36.335484-6.606452-19.819355-26.425806-19.819355-26.425806s36.335484-59.458065-6.606452-99.096774c-52.851613-52.851613-178.374194 6.606452-178.374194 6.606452-49.548387 16.516129-36.335484-6.606452-29.729032-42.941935 0-42.941935-16.516129-118.916129-145.341935-75.974194-128.825806 42.941935-241.135484 198.193548-241.135484 198.193548-75.974194 102.4-66.064516 181.677419-66.064516 181.677419 19.819355 175.070968 204.8 224.619355 350.141935 234.529032 151.948387 13.212903 360.051613-52.851613 419.509677-184.980645C901.780645 505.393548 786.167742 452.541935 749.832258 445.935484zM429.419355 776.258065c-151.948387 6.606452-274.167742-69.367742-274.167742-168.464516 0-102.4 122.219355-181.677419 274.167742-188.283871 151.948387-6.606452 274.167742 56.154839 274.167742 155.251613C703.587097 673.858065 581.367742 769.651613 429.419355 776.258065z"
          p-id="12462" fill="#9199a1"></path>
    <path d="M399.690323 482.270968C244.43871 498.787097 264.258065 644.129032 264.258065 644.129032s0 46.245161 39.63871 69.367742c89.187097 49.548387 181.677419 19.819355 227.922581-39.63871C578.064516 611.096774 551.63871 465.754839 399.690323 482.270968zM360.051613 683.767742c-29.729032 3.303226-52.851613-13.212903-52.851613-36.335484 0-23.122581 19.819355-49.548387 49.548387-52.851613 33.032258-3.303226 52.851613 16.516129 52.851613 39.63871C412.903226 657.341935 389.780645 680.464516 360.051613 683.767742zM449.23871 604.490323c-9.909677 6.606452-23.122581 6.606452-26.425806-3.303226-6.606452-9.909677-3.303226-23.122581 6.606452-29.729032 9.909677-9.909677 23.122581-6.606452 29.729032 3.303226C462.451613 584.670968 459.148387 597.883871 449.23871 604.490323z"
          p-id="12463" fill="#9199a1"></path>
    <path d="M825.806452 383.174194c13.212903 0 23.122581-9.909677 23.122581-19.819355 0 0 0-3.303226 0-3.303226 19.819355-168.464516-135.432258-138.735484-135.432258-138.735484-13.212903 0-26.425806 9.909677-26.425806 26.425806 0 13.212903 9.909677 26.425806 26.425806 26.425806 112.309677-23.122581 85.883871 85.883871 85.883871 85.883871C799.380645 373.264516 812.593548 383.174194 825.806452 383.174194z"
          p-id="12464" fill="#9199a1"></path>
    <path d="M805.987097 92.490323c-52.851613-13.212903-109.006452-3.303226-125.522581 0 0 0-3.303226 0-3.303226 0 0 0 0 0 0 0C663.948387 99.096774 650.735484 115.612903 650.735484 132.129032c0 19.819355 16.516129 36.335484 36.335484 36.335484 0 0 19.819355-3.303226 33.032258-6.606452 13.212903-6.606452 125.522581-3.303226 181.677419 89.187097 29.729032 69.367742 13.212903 112.309677 9.909677 122.219355 0 0-6.606452 16.516129-6.606452 36.335484 0 19.819355 16.516129 33.032258 36.335484 33.032258 16.516129 0 29.729032-3.303226 36.335484-29.729032l0 0C1037.212903 208.103226 901.780645 115.612903 805.987097 92.490323z"
          p-id="12465" fill="#9199a1"></path>
</svg>