<?xml version="1.0" standalone="no"?><!DOCTYPE svg PUBLIC "-//W3C//DTD SVG 1.1//EN" "http://www.w3.org/Graphics/SVG/1.1/DTD/svg11.dtd"><svg t="1540431544816" class="icon" style="" viewBox="0 0 1024 1024" version="1.1" xmlns="http://www.w3.org/2000/svg" p-id="2336" xmlns:xlink="http://www.w3.org/1999/xlink" width="32" height="32"><defs><style type="text/css"></style></defs><path d="M 820.8 220.6 c 30.4 0 55.1 24.7 55.1 55.1 l 0 358 c 0 30.4 -24.7 55.1 -55.1 55.1 l -362 0 l -18 0 l -14.5 10.7 l -100.9 74 l -0.2 -29.9 l -0.4 -54.7 L 270 688.9 l -55.1 0 c -30.4 0 -55.1 -24.7 -55.1 -55.1 l 0 -358 c 0 -30.4 24.7 -55.1 55.1 -55.1 L 820.8 220.7 M 820.8 165.5 L 214.8 165.5 c -60.6 0 -110.2 49.6 -110.2 110.2 l 0 358 c 0 60.6 49.6 110.2 110.2 110.2 L 270 743.9 l 0.9 137.7 l 187.8 -137.7 l 362 0 c 60.6 0 110.2 -49.6 110.2 -110.2 l 0 -358 C 931 215.1 881.4 165.5 820.8 165.5 L 820.8 165.5 Z" p-id="2337"></path><path d="M 415.5 420 L 305.3 420 L 305.3 475.1 L 415.5 475.1 L 415.5 420 Z" p-id="2338"></path><path d="M 580.8 420 L 470.6 420 L 470.6 475.1 L 580.8 475.1 L 580.8 420 Z" p-id="2339"></path><path d="M 746 420 L 635.8 420 L 635.8 475.1 L 746 475.1 L 746 420 Z" p-id="2340"></path></svg>