<?xml version="1.0" standalone="no"?><!DOCTYPE svg PUBLIC "-//W3C//DTD SVG 1.1//EN" "http://www.w3.org/Graphics/SVG/1.1/DTD/svg11.dtd"><svg t="1536247809134" class="icon" style="" viewBox="0 0 1024 1024" version="1.1" xmlns="http://www.w3.org/2000/svg" p-id="2204" xmlns:xlink="http://www.w3.org/1999/xlink" width="32" height="32"><defs><style type="text/css"></style></defs><path d="M713.2 150.6H312.8c-13.2 0-23.8 10.7-23.8 23.8v640.8c0 13.2 10.7 23.8 23.8 23.8h400.4c13.2 0 23.8-10.7 23.8-23.8V174.4c0-13.1-10.6-23.8-23.8-23.8zM513 804.2c-20.1 0-36.4-16.3-36.4-36.4 0-20.1 16.3-36.4 36.4-36.4s36.4 16.3 36.4 36.4c0 20.1-16.3 36.4-36.4 36.4z m190.3-113.4c0 7.4-6 13.4-13.4 13.4H336c-7.4 0-13.4-6-13.4-13.4V205.2c0-7.4 6-13.4 13.4-13.4h354c7.4 0 13.4 6 13.4 13.4v485.6z" p-id="2205" fill="#515151"></path></svg>