<?xml version="1.0" standalone="no"?><!DOCTYPE svg PUBLIC "-//W3C//DTD SVG 1.1//EN" "http://www.w3.org/Graphics/SVG/1.1/DTD/svg11.dtd"><svg t="1538623160997" class="icon" style="" viewBox="0 0 1024 1024" version="1.1" xmlns="http://www.w3.org/2000/svg" p-id="8952" xmlns:xlink="http://www.w3.org/1999/xlink" width="16" height="16"><defs><style type="text/css"></style></defs><path d="M921.788084 102.424764 102.202707 102.424764c-19.672038 0-35.681664 15.98302-35.681664 35.621289l0 570.256822c0 19.646456 16.009625 35.621289 35.681664 35.621289l44.147476 0 83.674725 155.37779c7.613398 14.147208 19.463284 22.274306 32.523741 22.274306 13.042037 0 24.883737-8.126075 32.488948-22.25691l83.674725-155.395186L921.788084 743.924163c19.681248 0 35.690874-15.974833 35.690874-35.621289L957.478957 138.045029C957.478957 118.407784 941.469332 102.424764 921.788084 102.424764zM939.659103 708.293665c0 9.832949-7.921413 17.803481-17.86488 17.803481L368.076076 726.097146l-88.722694 164.769694c-9.290597 17.253966-24.437575 17.099447-33.643238 0l-88.722694-164.769694-54.781674 0c-9.866718 0-17.86488-8.106632-17.86488-17.803481L84.340897 138.050146c0-9.832949 7.921413-17.803481 17.86488-17.803481l819.58947 0c9.866718 0 17.86488 8.105608 17.86488 17.803481L939.660126 708.293665z" p-id="8953" fill="#ff8000"></path><path d="M244.712421 351.892489c-39.301098 0-71.276347 31.975249-71.276347 71.276347s31.975249 71.276347 71.276347 71.276347 71.276347-31.975249 71.276347-71.276347S284.013519 351.892489 244.712421 351.892489zM244.712421 476.629421c-29.523407 0-53.457516-23.934109-53.457516-53.457516s23.934109-53.457516 53.457516-53.457516 53.457516 23.934109 53.457516 53.457516S274.235828 476.629421 244.712421 476.629421z" p-id="8954" fill="#ff8000"></path><path d="M476.361315 334.073658c-49.124837 0-89.096201 39.971363-89.096201 89.096201s39.971363 89.096201 89.096201 89.096201 89.096201-39.971363 89.096201-89.096201S525.486152 334.073658 476.361315 334.073658zM476.361315 494.448252c-39.365566 0-71.276347-31.911804-71.276347-71.276347 0-39.365566 31.91078-71.276347 71.276347-71.276347s71.276347 31.91078 71.276347 71.276347C547.637662 462.536448 515.726881 494.448252 476.361315 494.448252z" p-id="8955" fill="#ff8000"></path><path d="M743.648894 316.254827c-58.956763 0-106.915032 47.958268-106.915032 106.915032s47.958268 106.905822 106.915032 106.905822 106.915032-47.950082 106.915032-106.905822S802.605657 316.254827 743.648894 316.254827zM743.648894 512.267083c-49.205679 0-89.096201-39.889499-89.096201-89.096201s39.889499-89.096201 89.096201-89.096201 89.096201 39.889499 89.096201 89.096201S792.854573 512.267083 743.648894 512.267083z" p-id="8956" fill="#ff8000"></path></svg>