<?xml version="1.0" standalone="no"?><!DOCTYPE svg PUBLIC "-//W3C//DTD SVG 1.1//EN" "http://www.w3.org/Graphics/SVG/1.1/DTD/svg11.dtd"><svg t="1540213734953" class="icon" style="" viewBox="0 0 1024 1024" version="1.1" xmlns="http://www.w3.org/2000/svg" p-id="4403" xmlns:xlink="http://www.w3.org/1999/xlink" width="16" height="16"><defs><style type="text/css"></style></defs><path d="M329.86709543 249.22599137c-50.40069004 0-91.41166249 41.01097245-91.41166248 91.4116625v267.19269925c0 50.40069004 41.01097245 91.41166249 91.41166248 91.41166249h115.5763769l69.18012524 74.42732036 69.31820931-74.42732036h110.19109769c50.40069004 0 91.41166249-41.01097245 91.41166248-91.41166249V340.63765387c0-50.40069004-41.01097245-91.41166249-91.41166248-91.4116625H329.86709543z m184.06608172 554.40759046c-7.59462453 0-14.63691274-3.59018613-20.02219193-9.94205393l-61.03316439-65.5899391h-103.0107254c-66.2803595 0-120.2712357-53.99087618-120.27123568-120.27123568V340.63765387c0-66.2803595 53.99087618-120.2712357 120.27123568-120.2712357h364.26580914c66.2803595 0 120.2712357 53.99087618 120.27123568 120.2712357v267.19269925c0 66.2803595-53.99087618 120.2712357-120.27123568 120.27123568h-97.6254462l-61.44741662 66.00419135c-1.65700898 1.51892491-9.66588576 9.52780169-21.1268646 9.52780168z" p-id="4404" fill="#bfbfbf"></path><path d="M618.1866593 474.16496145c0 9.94205392 4.14252247 19.74602377 11.04672657 26.78831197 7.18037229 7.04228819 16.70817396 11.04672658 26.78831198 11.04672658 9.94205392 0 19.74602377-4.14252247 26.78831195-11.04672658 7.04228819-7.04228819 11.04672658-16.84625804 11.04672659-26.78831197 0-9.94205392-4.14252247-19.74602377-11.04672659-26.78831197-7.18037229-7.04228819-16.70817396-11.04672658-26.78831195-11.04672658-9.94205392 0-19.74602377 4.14252247-26.78831198 11.04672658-7.04228819 7.18037229-11.04672658 16.70817396-11.04672657 26.78831197z m-145.1263705 0c0 9.94205392 4.14252247 19.74602377 11.04672657 26.78831197 7.04228819 7.04228819 16.84625804 11.04672658 26.78831198 11.04672658 9.94205392 0 19.74602377-4.14252247 26.78831196-11.04672658 7.04228819-7.04228819 11.04672658-16.84625804 11.04672659-26.78831197 0-9.94205392-4.14252247-19.74602377-11.04672659-26.78831197-7.04228819-7.04228819-16.84625804-11.04672658-26.78831196-11.04672658-9.94205392 0-19.74602377 4.14252247-26.78831198 11.04672658-7.04228819 7.18037229-11.04672658 16.70817396-11.04672657 26.78831197z m-139.87917538 0c0 9.94205392 4.14252247 19.74602377 11.04672658 26.78831197 7.18037229 7.04228819 16.70817396 11.04672658 26.78831197 11.04672658 9.94205392 0 19.74602377-4.14252247 26.78831197-11.04672658 7.04228819-7.18037229 11.04672658-16.70817396 11.04672658-26.78831197 0-9.94205392-4.14252247-19.74602377-11.04672658-26.78831197-7.18037229-7.04228819-16.70817396-11.04672658-26.78831197-11.04672658-9.94205392 0-19.74602377 4.14252247-26.78831197 11.04672658-6.90420412 7.04228819-11.04672658 16.84625804-11.04672658 26.78831197z" p-id="4405" fill="#bfbfbf"></path></svg>